<svg width="22" height="21" viewBox="0 0 22 21" fill="none" xmlns="http://www.w3.org/2000/svg">
<path d="M8.50008 19.3332C8.96032 19.3332 9.33341 18.9601 9.33341 18.4998C9.33341 18.0396 8.96032 17.6665 8.50008 17.6665C8.03984 17.6665 7.66675 18.0396 7.66675 18.4998C7.66675 18.9601 8.03984 19.3332 8.50008 19.3332Z" stroke="#A0A4A8" stroke-width="2" stroke-linecap="round" stroke-linejoin="round"/>
<path d="M17.6666 19.3332C18.1268 19.3332 18.4999 18.9601 18.4999 18.4998C18.4999 18.0396 18.1268 17.6665 17.6666 17.6665C17.2063 17.6665 16.8333 18.0396 16.8333 18.4998C16.8333 18.9601 17.2063 19.3332 17.6666 19.3332Z" stroke="#A0A4A8" stroke-width="2" stroke-linecap="round" stroke-linejoin="round"/>
<path d="M1.83325 1.8335H5.16658L7.39992 12.9918C7.47612 13.3755 7.68484 13.7201 7.98954 13.9654C8.29424 14.2107 8.6755 14.341 9.06658 14.3335H17.1666C17.5577 14.341 17.9389 14.2107 18.2436 13.9654C18.5483 13.7201 18.757 13.3755 18.8333 12.9918L20.1666 6.00016H5.99992" stroke="#A0A4A8" stroke-width="2" stroke-linecap="round" stroke-linejoin="round"/>
</svg>
